<svg width="113.333542" height="113.333496" viewBox="0 0 113.334 113.333" fill="none" xmlns="http://www.w3.org/2000/svg" xmlns:xlink="http://www.w3.org/1999/xlink">
	<desc>
			Created with Pixso.
	</desc>
	<defs/>
	<path id="Vector" d="M56.4001 7.46783L56.4001 7.82855L27.8844 7.82855L27.8844 7.46783L29.7809 0L54.5035 0L56.4001 7.46783Z" fill="#EDE9FE" fill-opacity="1.000000" fill-rule="nonzero"/>
	<path id="Vector" d="M0 7.46783L84.2869 7.46783L84.2869 113.333L0 113.333L0 7.46783Z" fill="#4C1D95" fill-opacity="1.000000" fill-rule="nonzero"/>
	<path id="Vector" d="M7.61598 14.8674L76.6603 14.8674L76.6603 105.948L7.61598 105.948L7.61598 14.8674Z" fill="#C4B5FD" fill-opacity="1.000000" fill-rule="nonzero"/>
	<path id="Vector" d="M76.6604 14.8674L76.6604 100.367L28.4602 100.367C26.8981 100.367 25.3514 100.069 23.9084 99.4894C22.4654 98.9099 21.1544 98.0607 20.0502 96.9901C18.946 95.9194 18.0704 94.6486 17.4733 93.2499C16.8763 91.8513 16.5695 90.3523 16.5704 88.8387L16.5704 14.8674L76.6604 14.8674Z" fill="#A78BFA" fill-opacity="1.000000" fill-rule="nonzero"/>
	<path id="Vector" d="M17.0333 23.8025C16.4747 23.8025 15.939 24.0173 15.5437 24.3998C15.1485 24.7823 14.9262 25.3012 14.9255 25.8425L14.9255 36.2887C14.9262 36.83 15.1485 37.3488 15.5437 37.7313C15.939 38.1138 16.4747 38.3286 17.0333 38.3286L27.8138 38.3286C28.3721 38.3286 28.9076 38.1138 29.3024 37.7312C29.6973 37.3486 29.9191 36.8297 29.9191 36.2887L29.9191 26.0228C29.9191 25.7311 29.8597 25.4421 29.7444 25.1726C29.6291 24.9031 29.4601 24.6581 29.247 24.452C29.034 24.2457 28.7811 24.0823 28.5028 23.9708C28.2245 23.8594 27.9263 23.8022 27.6251 23.8025L17.0333 23.8025ZM17.0333 52.8402C16.4743 52.8402 15.9381 53.0554 15.5428 53.4385C15.1476 53.8214 14.9255 54.3409 14.9255 54.8827L14.9255 65.3289C14.9262 65.8701 15.1485 66.3889 15.5437 66.7715C15.939 67.1539 16.4747 67.3688 17.0333 67.3688L27.8138 67.3688C28.3721 67.3688 28.9076 67.1539 29.3024 66.7714C29.6973 66.3887 29.9191 65.8699 29.9191 65.3289L29.9191 55.063C29.9191 54.4735 29.6774 53.9081 29.2472 53.4912C28.817 53.0743 28.2335 52.8402 27.6251 52.8402L17.0333 52.8402ZM17.0333 81.4587C16.7566 81.4584 16.4826 81.5109 16.2269 81.6133C15.9711 81.7157 15.7388 81.8658 15.543 82.0553C15.3472 82.2448 15.1919 82.4698 15.086 82.7174C14.98 82.9651 14.9255 83.2306 14.9255 83.4987L14.9255 93.957C14.9262 94.4983 15.1485 95.0172 15.5437 95.3997C15.939 95.7822 16.4747 95.9971 17.0333 95.9971L27.8138 95.9971C28.3721 95.9971 28.9076 95.7821 29.3024 95.3995C29.6973 95.017 29.9191 94.498 29.9191 93.957L29.9191 83.6791C29.9191 83.3873 29.8597 83.0984 29.7444 82.8289C29.6291 82.5592 29.4601 82.3143 29.247 82.1082C29.034 81.902 28.7811 81.7384 28.5028 81.627C28.2245 81.5156 27.9263 81.4584 27.6251 81.4587L17.0333 81.4587Z" fill="#6D28D9" fill-opacity="1.000000" fill-rule="nonzero"/>
	<path id="Vector" d="M67.8367 32.8275L52.9639 32.8275C52.4636 32.8275 51.9838 32.635 51.63 32.2921C51.2762 31.9493 51.0775 31.4844 51.0775 30.9996C51.0775 30.5148 51.2762 30.0498 51.63 29.707C51.9838 29.3643 52.4636 29.1716 52.9639 29.1716L67.8367 29.1716C68.3371 29.1716 68.8169 29.3643 69.1707 29.707C69.5245 30.0498 69.7232 30.5148 69.7232 30.9996C69.7232 31.4844 69.5245 31.9493 69.1707 32.2921C68.8169 32.635 68.3371 32.8275 67.8367 32.8275ZM45.3477 32.8275L37.7012 32.8275C37.2009 32.8275 36.7211 32.635 36.3673 32.2921C36.0135 31.9493 35.8148 31.4844 35.8148 30.9996C35.8148 30.5148 36.0135 30.0498 36.3673 29.707C36.7211 29.3643 37.2009 29.1716 37.7012 29.1716L45.3477 29.1716C45.848 29.1716 46.3278 29.3643 46.6816 29.707C47.0354 30.0498 47.2341 30.5148 47.2341 30.9996C47.2341 31.4844 47.0354 31.9493 46.6816 32.2921C46.3278 32.635 45.848 32.8275 45.3477 32.8275ZM67.8367 61.1316L60.467 61.1316C59.9667 61.1316 59.4868 60.9391 59.1331 60.5963C58.7793 60.2534 58.5805 59.7885 58.5805 59.3037C58.5805 58.8188 58.7793 58.354 59.1331 58.0111C59.4868 57.6683 59.9667 57.4757 60.467 57.4757L67.8367 57.4757C68.3371 57.4757 68.8169 57.6683 69.1707 58.0111C69.5245 58.354 69.7232 58.8188 69.7232 59.3037C69.7232 59.7885 69.5245 60.2534 69.1707 60.5963C68.8169 60.9391 68.3371 61.1316 67.8367 61.1316ZM52.7878 61.1316L37.6962 61.1316C37.1959 61.1316 36.716 60.9391 36.3623 60.5963C36.0085 60.2534 35.8097 59.7885 35.8097 59.3037C35.8097 58.8188 36.0085 58.354 36.3623 58.0111C36.716 57.6683 37.1959 57.4757 37.6962 57.4757L52.7878 57.4757C53.2882 57.4757 53.768 57.6683 54.1218 58.0111C54.4756 58.354 54.6743 58.8188 54.6743 59.3037C54.6743 59.7885 54.4756 60.2534 54.1218 60.5963C53.768 60.9391 53.2882 61.1316 52.7878 61.1316ZM23.7163 34.2655L23.6433 34.2655C23.3936 34.2557 23.1484 34.1981 22.9217 34.0961C22.6951 33.994 22.4915 33.8495 22.3228 33.6709L19.9861 31.1848C19.8193 31.0077 19.6902 30.8004 19.606 30.575C19.5219 30.3494 19.4844 30.11 19.4957 29.8705C19.507 29.6309 19.567 29.3958 19.672 29.1787C19.7771 28.9615 19.9253 28.7666 20.1081 28.605C20.2909 28.4434 20.5048 28.3182 20.7376 28.2367C20.9703 28.1552 21.2174 28.1188 21.4646 28.1298C21.7118 28.1407 21.9544 28.1989 22.1785 28.3007C22.4025 28.4025 22.6037 28.546 22.7705 28.7231L23.8219 29.837L33.6919 20.8703C34.0564 20.539 34.5419 20.3616 35.0414 20.3771C35.541 20.3927 36.0137 20.5999 36.3555 20.9531C36.6974 21.3064 36.8805 21.7768 36.8645 22.2609C36.8484 22.7449 36.6346 23.2029 36.27 23.5342L25.0066 33.7708C24.6574 34.0892 24.1958 34.2662 23.7163 34.2655ZM23.7163 63.3032L23.6433 63.3032C23.3936 63.2935 23.1484 63.2358 22.9217 63.1338C22.6951 63.0317 22.4915 62.8872 22.3228 62.7086L19.9861 60.2225C19.8193 60.0454 19.6902 59.8381 19.606 59.6125C19.5219 59.3871 19.4844 59.1477 19.4957 58.9081C19.507 58.6686 19.567 58.4335 19.672 58.2164C19.7771 57.9993 19.9253 57.8043 20.1081 57.6427C20.2909 57.4811 20.5048 57.356 20.7376 57.2744C20.9703 57.1929 21.2174 57.1565 21.4646 57.1675C21.7118 57.1785 21.9544 57.2366 22.1785 57.3384C22.4025 57.4402 22.6037 57.5837 22.7705 57.7609L23.8219 58.8748L33.6919 49.908C34.0564 49.5767 34.5419 49.3993 35.0414 49.4149C35.541 49.4304 36.0137 49.6376 36.3555 49.9908C36.6974 50.3441 36.8805 50.8146 36.8645 51.2986C36.8484 51.7826 36.6346 52.2406 36.27 52.5719L25.0066 62.8085C24.6576 63.1272 24.1958 63.3042 23.7163 63.3032ZM23.7163 91.9193L23.6433 91.9193C23.3936 91.9095 23.1484 91.8519 22.9217 91.7499C22.6951 91.6478 22.4915 91.5033 22.3228 91.3246L19.9786 88.8386C19.802 88.6631 19.6635 88.4551 19.5716 88.2267C19.4796 87.9984 19.436 87.7545 19.4433 87.5095C19.4506 87.2644 19.5087 87.0233 19.6141 86.8005C19.7195 86.5778 19.87 86.3777 20.0568 86.2124C20.2436 86.0471 20.4628 85.9199 20.7013 85.8384C20.9398 85.7568 21.1929 85.7227 21.4454 85.7378C21.6978 85.7528 21.9446 85.817 22.1709 85.9264C22.3973 86.0358 22.5986 86.1882 22.763 86.3745L23.8144 87.4884L33.6843 78.5192C34.0525 78.2068 34.5315 78.0453 35.0202 78.0686C35.509 78.092 35.9692 78.2986 36.3038 78.6445C36.6384 78.9906 36.8211 79.449 36.8134 79.9231C36.8057 80.3972 36.6081 80.85 36.2625 81.1855L24.9991 91.4221C24.6523 91.7399 24.1936 91.9177 23.7163 91.9193ZM68.3297 90.4935L53.4594 90.4935C52.9591 90.4935 52.4793 90.3009 52.1255 89.9581C51.7717 89.6154 51.573 89.1504 51.573 88.6655C51.573 88.1808 51.7717 87.7158 52.1255 87.373C52.4793 87.0302 52.9591 86.8376 53.4594 86.8376L68.3297 86.8376C68.8301 86.8376 69.3099 87.0302 69.6637 87.373C70.0174 87.7158 70.2162 88.1808 70.2162 88.6655C70.2162 89.1504 70.0174 89.6154 69.6637 89.9581C69.3099 90.3009 68.8301 90.4935 68.3297 90.4935ZM45.8331 90.4935L38.1942 90.4935C37.6939 90.4935 37.2141 90.3009 36.8603 89.9581C36.5065 89.6154 36.3078 89.1504 36.3078 88.6655C36.3078 88.1808 36.5065 87.7158 36.8603 87.373C37.2141 87.0302 37.6939 86.8376 38.1942 86.8376L45.8331 86.8376C46.3334 86.8376 46.8132 87.0302 47.167 87.373C47.5208 87.7158 47.7196 88.1808 47.7196 88.6655C47.7196 89.1504 47.5208 89.6154 47.167 89.9581C46.8132 90.3009 46.3334 90.4935 45.8331 90.4935Z" fill="#EDE9FE" fill-opacity="1.000000" fill-rule="nonzero"/>
	<path id="Vector" d="M113.334 50.2566C113.334 50.7415 113.135 51.2064 112.781 51.5492C112.427 51.892 111.947 52.0846 111.447 52.0846C110.947 52.0846 110.467 51.892 110.113 51.5492C109.759 51.2064 109.561 50.7415 109.561 50.2566L109.561 33.5369C109.435 33.1226 108.932 32.1477 106.718 32.1477L104.822 32.1477L104.822 28.8086C104.826 28.7024 104.818 28.5961 104.797 28.4917L106.721 28.4917C108.223 28.3182 109.737 28.7018 110.959 29.5652C112.182 30.4287 113.022 31.7083 113.311 33.147L113.334 50.2566ZM104.958 94.5663L99.248 113.333L93.5131 94.5663L104.958 94.5663Z" fill="#6D28D9" fill-opacity="1.000000" fill-rule="nonzero"/>
	<path id="Vector" d="M93.5131 50.2567L104.958 50.2567L104.958 94.5664L93.5131 94.5664L93.5131 50.2567Z" fill="#C4B5FD" fill-opacity="1.000000" fill-rule="nonzero"/>
	<path id="Vector" d="M104.96 28.8085L104.96 50.2565L93.5152 50.2565L93.5152 28.8085C93.5152 27.3379 94.1181 25.9276 95.1912 24.8877C96.2644 23.8478 97.7198 23.2637 99.2375 23.2637C100.755 23.2637 102.211 23.8478 103.284 24.8877C104.357 25.9276 104.96 27.3379 104.96 28.8085Z" fill="#6D28D9" fill-opacity="1.000000" fill-rule="nonzero"/>
	<path id="Vector" d="M104.957 94.5664L99.2476 113.333L99.2476 94.5664L104.957 94.5664Z" fill="#7C3AED" fill-opacity="1.000000" fill-rule="nonzero"/>
	<path id="Vector" d="M99.2476 50.2567L104.957 50.2567L104.957 94.5664L99.2476 94.5664L99.2476 50.2567Z" fill="#A78BFA" fill-opacity="1.000000" fill-rule="nonzero"/>
	<path id="Vector" d="M104.96 28.8087L104.96 50.2567L99.2504 50.2567L99.2504 23.2761C100.707 23.2753 102.108 23.8157 103.166 24.7861C104.223 25.7563 104.856 27.0828 104.935 28.4919C104.956 28.5962 104.964 28.7025 104.96 28.8087Z" fill="#7C3AED" fill-opacity="1.000000" fill-rule="nonzero"/>
</svg>
